<?xml version="1.0" standalone="no"?>
<svg xmlns="http://www.w3.org/2000/svg" viewBox="0 0 54 68" width="54" height="68"><g fill="#ff8888" color="#ff8888" transform="translate(9.104 0) scale(0.35) "><svg width="100.0" height="100.0" x="0.0" y="0.0" viewBox="0 0 100 100"><path d="M86,84H14c-1.1,0-2-0.9-2-2V48.2c-3.9-2.3-4-6.1-4-6.2V18c0-1.1,0.9-2,2-2h80c1.1,0,2,0.9,2,2v24c0,0.1-0.1,3.8-4,6.2V82  C88,83.1,87.1,84,86,84z M16,80h68V68H16V80z M16,64h68V49.6c-1.2,0.2-2.5,0.4-4,0.4c-5.4,0-8.4-1.6-10-3.4c-1.6,1.8-4.6,3.4-10,3.4  s-8.4-1.6-10-3.4c-1.6,1.8-4.6,3.4-10,3.4s-8.4-1.6-10-3.4c-1.6,1.8-4.6,3.4-10,3.4c-1.5,0-2.8-0.1-4-0.4V64z M72,42  c0,0.5,0.5,4,8,4c7.6,0,8-3.6,8-4V20H72V42z M52,42c0,0.5,0.5,4,8,4s8-3.6,8-4V20H52V42z M32,42c0,0.5,0.5,4,8,4s8-3.6,8-4V20H32V42  z M12,42c0,0.5,0.5,4,8,4s8-3.6,8-4V20H12V42z"></path></svg></g><line x1="10.154" y1="41" x2="43.054" y2="41" stroke="#50b7f5" stroke-linecap="round"></line><path fill="#50b7f5" fill-rule="nonzero" d="M5.09 21Q2.59 21 1.30 19.48Q0 17.95 0 15.19L0 15.19L0 5.38Q0 2.71 1.30 1.36Q2.59 0 5.09 0L5.09 0Q7.58 0 8.88 1.36Q10.18 2.71 10.18 5.38L10.18 5.38L10.18 15.19Q10.18 17.98 8.88 19.49Q7.58 21 5.09 21L5.09 21ZM5.09 17.21Q5.64 17.21 5.83 16.73Q6.02 16.25 6.02 15.38L6.02 15.38L6.02 5.30Q6.02 4.63 5.84 4.21Q5.66 3.79 5.11 3.79L5.11 3.79Q4.08 3.79 4.08 5.35L4.08 5.35L4.08 15.41Q4.08 16.30 4.30 16.75Q4.51 17.21 5.09 17.21L5.09 17.21ZM16.63 21Q14.38 21 13.02 19.58Q11.66 18.17 11.66 15.70L11.66 15.70L11.66 6.19Q11.66 3.12 12.89 1.56Q14.11 0 16.73 0L16.73 0Q19.01 0 20.40 1.25Q21.79 2.50 21.79 4.85L21.79 4.85L21.79 8.40L17.69 8.40L17.69 5.35Q17.69 4.46 17.47 4.13Q17.26 3.79 16.73 3.79L16.73 3.79Q16.18 3.79 15.97 4.18Q15.77 4.56 15.77 5.30L15.77 5.30L15.77 15.65Q15.77 16.46 16.01 16.84Q16.25 17.21 16.73 17.21L16.73 17.21Q17.69 17.21 17.69 15.65L17.69 15.65L17.69 11.93L21.84 11.93L21.84 15.82Q21.84 21 16.63 21L16.63 21ZM26.66 20.81L22.66 20.81L24.65 0.19L31.63 0.19L33.60 20.81L29.69 20.81L29.40 17.47L26.90 17.47L26.66 20.81ZM27.98 3.70L27.22 14.18L29.09 14.18L28.18 3.70L27.98 3.70ZM43.18 20.81L34.32 20.81L34.32 17.06L39.02 3.98L34.78 3.98L34.78 0.19L43.39 0.19L43.39 3.79L38.57 17.02L43.18 17.02L43.18 20.81ZM53.21 20.81L44.69 20.81L44.69 0.19L52.94 0.19L52.94 4.18L48.89 4.18L48.89 8.18L52.78 8.18L52.78 12.07L48.89 12.07L48.89 16.80L53.21 16.80L53.21 20.81Z" transform="translate(0, 47)"></path></svg>